# xmcd CD database file
#
# Track frame offsets:
#	150
#	15974
#	42956
#	70022
#	97071
#	121202
#	139475
#	159345
#	180295
#	199719
#	221392
#	247775
#
# Disc length: 3687 seconds
#
# Revision: 0
# Processed by: cddbd v1.5.2PL0 Copyright (c) Steve Scherf et al.
# Submitted via: CDex 1.71
#
DISCID=950e650c
DTITLE=The Original  Zealand Streetparade Jazzband - Goes Live
DYEAR=2003
DGENRE=Jazz
TTITLE0=My Gall Sal
TTITLE1=Basin Street Blues
TTITLE2=Avalon
TTITLE3=Schlafe Mein Prinzchen
TTITLE4=In The Shade of the Old Appletree
TTITLE5=Should I Reveal
TTITLE6=Make me a Pallet on the Floor
TTITLE7=Alexanders Ragtimeband
TTITLE8=Algiers Strut
TTITLE9=Dans les Rues D'Antibes
TTITLE10=Ice Cream
TTITLE11=Play a Simple Melody
EXTD=YEAR: 2003
EXTT0=
EXTT1=
EXTT2=
EXTT3=
EXTT4=
EXTT5=
EXTT6=
EXTT7=
EXTT8=
EXTT9=
EXTT10=
EXTT11=
PLAYORDER=
